<?xml version="1.0" encoding="UTF-8" standalone="no"?><score-partwise><part-list><score-part id="P1"><part-name>Music</part-name></score-part></part-list><part id="P1"><measure number="0"><attributes><divisions>4</divisions><key><fifths>0</fifths></key><time><beats>4</beats><beat-type>4</beat-type></time><clef><sign>G</sign><line>2</line></clef></attributes><note><pitch><step>E</step><octave>4</octave></pitch><duration>4</duration><type>half</type></note><note><chord/><pitch><step>D</step><octave>4</octave></pitch><duration>2</duration><type>quarter</type></note><note><chord/><pitch><step>A</step><octave>4</octave></pitch><duration>2</duration><type>quarter</type></note><note><chord/><pitch><step>F</step><octave>4</octave></pitch><duration>2</duration><type>quarter</type></note><note><pitch><step>E</step><octave>4</octave></pitch><duration>2</duration><type>quarter</type></note></measure><measure number="1"><note><pitch><step>C#</step><octave>4</octave></pitch><duration>6</duration><type>half</type><dot/></note></measure><measure number="2"><note><pitch><step>E</step><octave>4</octave></pitch><duration>4</duration><type>half</type></note><note><pitch><step>D</step><octave>4</octave></pitch><duration>2</duration><type>quarter</type></note><note><pitch><step>D</step><octave>4</octave></pitch><duration>2</duration><type>quarter</type></note></measure><measure number="3"><note><pitch><step>E</step><octave>4</octave></pitch><duration>6</duration><type>half</type><dot/></note></measure><measure number="4"><note><pitch><step>E</step><octave>4</octave></pitch><duration>4</duration><type>half</type></note><note><chord/><pitch><step>D</step><octave>4</octave></pitch><duration>2</duration><type>quarter</type></note><note><chord/><pitch><step>A</step><octave>4</octave></pitch><duration>2</duration><type>quarter</type></note><note><chord/><pitch><step>F</step><octave>4</octave></pitch><duration>2</duration><type>quarter</type></note><note><pitch><step>E</step><octave>4</octave></pitch><duration>2</duration><type>quarter</type></note></measure><measure number="5"><note><pitch><step>C#</step><octave>4</octave></pitch><duration>6</duration><type>half</type><dot/></note></measure><measure number="6"><note><pitch><step>E</step><octave>4</octave></pitch><duration>4</duration><type>half</type></note><note><pitch><step>D</step><octave>4</octave></pitch><duration>2</duration><type>quarter</type></note><note><pitch><step>D</step><octave>4</octave></pitch><duration>2</duration><type>quarter</type></note></measure><measure number="7"><note><pitch><step>E</step><octave>4</octave></pitch><duration>6</duration><type>half</type><dot/></note></measure><measure number="8"><note><pitch><step>E</step><octave>4</octave></pitch><duration>4</duration><type>half</type></note><note><chord/><pitch><step>D</step><octave>4</octave></pitch><duration>2</duration><type>quarter</type></note><note><chord/><pitch><step>A</step><octave>4</octave></pitch><duration>2</duration><type>quarter</type></note><note><chord/><pitch><step>F</step><octave>4</octave></pitch><duration>2</duration><type>quarter</type></note><note><pitch><step>E</step><octave>4</octave></pitch><duration>2</duration><type>quarter</type></note></measure><measure number="9"><note><pitch><step>C#</step><octave>4</octave></pitch><duration>6</duration><type>half</type><dot/></note></measure><measure number="10"><note><pitch><step>E</step><octave>4</octave></pitch><duration>4</duration><type>half</type></note><note><pitch><step>D</step><octave>4</octave></pitch><duration>2</duration><type>quarter</type></note><note><pitch><step>D</step><octave>4</octave></pitch><duration>2</duration><type>quarter</type></note></measure><measure number="11"><note><pitch><step>E</step><octave>4</octave></pitch><duration>6</duration><type>half</type><dot/></note></measure></part></score-partwise>